HIERARCHY
ROOT Hips
{
	OFFSET 0.00000 0.00000 0.00000
	CHANNELS 6 Xposition Yposition Zposition Yrotation Zrotation Xrotation 
	JOINT Lumbar
	{
		OFFSET 0 0 0
		CHANNELS 3 Zrotation Xrotation Yrotation
		JOINT Neck
		{
			OFFSET 0.00 0.2701 0.00
			CHANNELS 3 Zrotation Xrotation Yrotation
			End Site
			{
				OFFSET 0.00 0.1379 0.00
			}
		}
		JOINT RightShoulder
		{
			OFFSET 0.0119 0.2289 0.1181
			CHANNELS 3 Zrotation Xrotation Yrotation
			JOINT RightElbow
			{
				OFFSET 0.00 -0.1475 0.00
				CHANNELS 2 Zrotation Yrotation
				JOINT RightWrist
				{
					OFFSET 0.00 -0.1605 0.00
					CHANNELS 2 Zrotation Xrotation
					End Site
					{
						OFFSET 0.0040 -0.1068 0.0006
					}
				}
			}
		}
		JOINT LeftShoulder
		{
			OFFSET 0.0119 0.2289 -0.1181
			CHANNELS 3 Zrotation Xrotation Yrotation
			JOINT LeftElbow
			{
				OFFSET 0.00 -0.1475 0.00
				CHANNELS 2 Zrotation Yrotation
				JOINT LeftWrist
				{
					OFFSET 0.00 -0.1605 0.00
					CHANNELS 2 Zrotation Xrotation
					End Site
					{
						OFFSET 0.0040 -0.1068 -0.0006
					}
				}
			}
		}
	}
	JOINT RightHip
	{
		OFFSET 0.0316 -0.0424 0.0458
		CHANNELS 3 Zrotation Xrotation Yrotation
		JOINT RightKnee
		{
			OFFSET 0.00 -0.2438 0.00
			CHANNELS 1 Zrotation
			JOINT RightAnkle
			{
				OFFSET 0.00 -0.2449 0.00
				CHANNELS 3 Zrotation Xrotation Yrotation
				End Site
				{
					OFFSET 0.1237 -0.0542 0.0051
				}
			}
		}
	}
	JOINT LeftHip
	{
		OFFSET 0.0316 -0.0424 -0.0458
		CHANNELS 3 Zrotation Xrotation Yrotation
		JOINT LeftKnee
		{
			OFFSET 0.00 -0.2438 0.00
			CHANNELS 1 Zrotation
			JOINT LeftAnkle
			{
				OFFSET 0.00 -0.2449 0.00
				CHANNELS 3 Zrotation Xrotation Yrotation
				End Site
				{
					OFFSET 0.1237 -0.0542 -0.0051
				}
			}
		}
	}
}
MOTION
Frames: 33
Frame Time: 0.02
-0.67834 -0.01409 -0.12262 273.95402 -26.99336 -4.54862 34.15948 4.98473 -1.84789 -5.72933 -0.34038 -0.83069 36.36302 11.40174 41.21739 126.61604 83.4423 -4.61993 -3.83806 2.56004 12.87816 -58.18349 100.77693 -102.69265 12.2995 -1.41988 57.03483 3.74714 -5.76628 -24.3471 -8.0927 -2.17115 -1.78359 31.10542 10.53764 1.07448 -30.54318 -7.81253 -0.23525 0.48212
-0.6793 -0.01466 -0.11557 275.27974 -27.04842 -4.28963 34.25238 4.96867 -1.85497 -5.83543 -0.2727 -0.83069 36.60396 11.40174 40.95054 126.54409 83.46427 -4.04849 -3.52766 2.36302 13.15694 -58.0972 100.69503 -103.82409 13.34335 -1.37023 56.68375 3.84493 -5.79338 -23.4645 -8.16107 -1.96464 -1.67827 30.64004 10.673 0.89902 -30.59041 -7.90061 -0.29319 0.45362
-0.68026 -0.01532 -0.10814 276.60452 -27.05959 -3.96704 34.35763 4.93962 -1.86279 -5.93105 -0.20739 -0.83069 36.86802 11.40174 40.64058 126.47418 83.49836 -3.22423 -3.07963 2.19824 13.39617 -58.02403 100.60361 -105.14108 14.76221 -1.33464 56.1345 3.92811 -5.65222 -23.1048 -8.26901 -1.81213 -1.60782 30.10856 10.76222 0.69084 -30.66652 -7.98798 -0.34436 0.42877
-0.6812 -0.01591 -0.10086 277.92511 -27.08447 -3.68181 34.45346 4.92479 -1.87417 -6.02578 -0.13672 -0.83069 37.11638 11.40174 40.35412 126.40593 83.5265 -2.52467 -2.70606 2.03437 13.65291 -57.96923 100.52889 -106.34015 15.9979 -1.29579 55.67591 4.00672 -5.61226 -22.54263 -8.35556 -1.63941 -1.52338 29.60816 10.88391 0.5053 -30.74126 -8.07954 -0.3995 0.40177
-0.68221 -0.01662 -0.09366 279.26487 -27.13233 -3.3604 34.56333 4.87486 -1.86936 -6.14588 -0.08323 -0.83069 37.38546 11.40174 40.05063 126.32699 83.5566 -1.78206 -2.28144 1.80654 13.91544 -57.81588 100.39971 -107.69454 17.28938 -1.24381 55.20638 4.12501 -5.49239 -21.83825 -8.45566 -1.4451 -1.42915 29.09282 10.95955 0.29377 -30.75886 -8.15453 -0.45078 0.37686
-0.68308 -0.01709 -0.08621 280.56397 -27.12494 -3.09946 34.649 4.89478 -1.89894 -6.20943 0.00495 -0.83069 37.61909 11.40172 39.77284 126.27033 83.58531 -1.072 -1.93132 1.71633 14.15391 -57.86628 100.38427 -108.76405 18.55247 -1.22081 54.71513 4.16221 -5.48639 -21.54772 -8.53672 -1.31029 -1.36455 28.60379 11.11857 0.12242 -30.91115 -8.26436 -0.50847 0.34852
-0.68354 -0.01692 -0.07817 281.75897 -26.95338 -3.02058 34.64766 5.11272 -2.01614 -6.12708 0.19194 -0.83069 37.72732 11.40176 39.5732 126.27979 83.60913 -0.48477 -1.81359 2.03134 14.34978 -58.51435 100.66329 -109.00451 19.65192 -1.29545 54.22025 3.95279 -5.87727 -22.3242 -8.56217 -1.32106 -1.37034 28.1195 11.5273 0.11627 -31.35598 -8.46568 -0.58615 0.30924
-0.68386 -0.01649 -0.0699 282.91192 -26.73164 -3.00492 34.62421 5.40098 -2.16921 -5.9866 0.41348 -0.83069 37.80287 11.4017 39.40147 126.31086 83.63078 0.05617 -1.77688 2.47847 14.51994 -59.36033 101.0605 -108.94957 20.70887 -1.39541 53.7099 3.66757 -6.37922 -23.48951 -8.56612 -1.39112 -1.40543 27.68024 12.02016 0.14416 -31.94953 -8.70297 -0.67034 0.26653
-0.68425 -0.01617 -0.06175 284.07886 -26.54834 -2.96064 34.62297 5.65586 -2.31034 -5.86756 0.61737 -0.83069 37.90784 11.40172 39.21931 126.3285 83.65218 0.59887 -1.70771 2.84269 14.69205 -60.08977 101.419 -109.02581 21.78021 -1.46984 53.20313 3.4355 -6.79857 -24.44194 -8.57569 -1.43823 -1.42934 27.27565 12.46836 0.12386 -32.52176 -8.92697 -0.75126 0.2257
-0.6846 -0.01591 -0.05351 285.26673 -26.29938 -2.91355 34.57325 5.91656 -2.43278 -5.76924 0.82897 -0.83069 37.95289 11.40186 39.02654 126.3607 83.67922 1.22987 -1.61541 3.30157 14.90335 -60.92963 101.7169 -109.12105 22.8836 -1.60264 52.70498 3.12536 -7.34254 -25.564 -8.60387 -1.47094 -1.44575 26.63517 12.94043 0.23449 -32.89726 -9.13804 -0.83356 0.18348
-0.68501 -0.01545 -0.04542 286.40185 -26.17344 -2.88831 34.61603 6.18165 -2.60303 -5.61403 1.03328 -0.83069 38.11374 11.40138 38.86253 126.36861 83.69387 1.66504 -1.59221 3.59796 15.02814 -61.58928 102.16534 -109.10492 23.90754 -1.62131 52.1864 2.95816 -7.66236 -26.41999 -8.58798 -1.54622 -1.48386 26.49855 13.38549 0.08861 -33.72044 -9.38456 -0.91424 0.14348
-0.68566 -0.01445 -0.03777 287.39388 -26.42065 -2.90647 34.94625 6.44437 -2.89251 -5.31672 1.20432 -0.83069 38.60966 11.40221 38.77639 126.2963 83.67405 1.54746 -1.74197 3.38025 14.9138 -61.67658 103.03384 -108.84508 24.69982 -1.30519 51.62907 3.22062 -7.27544 -26.4284 -8.45309 -1.73137 -1.57824 27.73361 13.71597 -0.84036 -35.7141 -9.71933 -0.99134 0.10915
-0.68639 -0.01326 -0.0303 288.33532 -26.78988 -2.94477 35.36544 6.70837 -3.22891 -4.96431 1.36765 -0.83069 39.22133 11.40179 38.71786 126.20027 83.64156 1.23629 -1.95886 2.99964 14.71451 -61.58003 104.04357 -108.48405 25.41501 -0.87598 51.05037 3.62653 -6.67051 -26.1561 -8.27493 -1.9558 -1.69261 29.47516 14.01928 -2.0163 -38.15538 -10.08786 -1.06569 0.07765
-0.68707 -0.01218 -0.02279 289.30552 -27.08932 -2.97543 35.72617 6.97044 -3.54735 -4.63633 1.53772 -0.83069 39.77563 11.40009 38.64287 126.12018 83.61582 1.02931 -2.14438 2.71616 14.55882 -61.58547 104.96691 -108.17378 26.17964 -0.50704 50.47307 3.95611 -6.20677 -26.02161 -8.11799 -2.15749 -1.7953 30.99212 14.34919 -3.03515 -40.4148 -10.44254 -1.14026 0.04541
-0.6878 -0.01099 -0.0151 290.25156 -27.44666 -3.00288 36.16161 7.24181 -3.85573 -4.30784 1.69565 -0.83069 40.35068 11.40651 38.58362 126.01892 83.58739 0.75736 -2.33611 2.34315 14.38188 -61.52207 105.98826 -107.83278 26.88603 -0.10074 49.92925 4.33017 -5.57184 -25.85868 -7.95352 -2.38183 -1.90996 32.49117 14.62567 -4.2413 -42.60123 -10.79559 -1.22123 0.00976
-0.68844 -0.00997 -0.00782 291.23436 -27.7141 -3.0397 36.46366 7.49176 -4.19213 -3.96943 1.8762 -0.83069 40.90821 11.39531 38.49997 125.95602 83.55961 0.56913 -2.53003 2.11199 14.2284 -61.5532 106.83729 -107.53607 27.69115 0.25395 49.31206 4.6465 -5.23673 -25.68209 -7.79503 -2.56766 -2.00411 34.14204 15.00107 -5.11752 -45.02795 -11.15529 -1.28582 -0.01685
-0.68881 -0.00946 -0.00157 292.34936 -27.69468 -3.10808 36.36874 7.69416 -4.62534 -3.6058 2.12347 -0.83069 41.40834 11.33976 38.32318 126.00281 83.55423 0.71384 -2.71141 2.34815 14.16912 -61.91141 107.17678 -107.38297 28.82767 0.44734 48.48781 4.76968 -5.81252 -25.54359 -7.66114 -2.63614 -2.03601 36.1315 15.69704 -5.01374 -48.14126 -11.56226 -1.32612 -0.02999
-0.68908 -0.00911 0.00427 293.50007 -27.58247 -3.18279 36.13789 7.8724 -5.07926 -3.2365 2.39277 -0.83069 41.88346 11.26613 38.12418 126.08907 83.54713 0.94059 -2.89269 2.7255 14.13507 -62.36598 107.33733 -107.27976 30.05846 0.58359 47.59263 4.82979 -6.69112 -25.398 -7.53534 -2.66452 -2.04661 38.2471 16.48519 -4.57179 -51.45215 -11.96802 -1.34661 -0.03233
-0.68939 -0.00867 0.01027 294.62235 -27.51873 -3.24748 35.97392 8.05349 -5.50313 -2.87745 2.65073 -0.83069 42.35745 11.19772 37.94781 126.15872 83.52876 1.09299 -3.07501 3.01386 14.08368 -62.76181 107.57849 -107.1578 31.22067 0.73999 46.73606 4.91848 -7.41153 -25.24858 -7.4076 -2.71177 -2.06725 40.27744 17.20437 -4.28968 -54.58909 -12.34925 -1.36234 -0.03221
-0.68975 -0.0083 0.01637 295.79354 -27.43261 -3.34354 35.79153 8.26889 -6.01545 -2.48398 2.9156 -0.83069 42.88798 11.14047 37.71998 126.22282 83.55898 1.39075 -3.25548 3.40073 14.05333 -63.21518 107.82715 -107.01675 32.49076 0.92392 45.85077 5.01313 -8.21274 -25.11812 -7.27102 -2.75744 -2.08693 42.447 18.03816 -3.98769 -58.11061 -12.83591 -1.43444 -0.06213
-0.68996 -0.00784 0.02217 296.87302 -27.36948 -3.3749 35.61399 8.40718 -6.3483 -2.16165 3.16943 -0.83069 43.2936 11.05751 37.59308 126.30704 83.49008 1.41319 -3.43894 3.61895 13.98725 -63.57308 108.01647 -106.92719 33.55713 1.03669 45.01007 5.0777 -8.91854 -24.95171 -7.15529 -2.79668 -2.10349 44.34546 18.65396 -3.64667 -60.85517 -13.10431 -1.38653 -0.02816
-0.68978 -0.00707 0.02733 297.68196 -27.39231 -3.23107 35.48342 8.33726 -6.1762 -2.03707 3.40448 -0.83069 43.35675 10.8922 37.75544 126.4467 83.12766 0.60986 -3.62993 3.33 13.80826 -63.65194 108.0788 -106.9811 34.05878 0.95558 44.29919 5.08097 -9.30408 -24.67471 -7.09583 -2.82474 -2.1146 45.49985 18.65825 -3.25157 -61.54682 -12.75263 -0.99478 0.18975
-0.68944 -0.00623 0.0322 298.39923 -27.44112 -3.02102 35.36198 8.19083 -5.8234 -1.98463 3.62452 -0.83069 43.29495 10.7044 38.01888 126.60354 82.66923 -0.46358 -3.82372 2.8689 13.59439 -63.63098 108.0878 -107.08305 34.34854 0.80623 43.63813 5.05422 -9.58144 -24.36573 -7.05719 -2.84806 -2.12354 46.36787 18.43792 -2.83213 -61.42029 -12.18471 -0.48658 0.46949
-0.68915 -0.00545 0.03718 299.16432 -27.47729 -2.83764 35.2356 8.08006 -5.55584 -1.89938 3.84021 -0.83069 43.29242 10.53745 38.23279 126.74641 82.26829 -1.38301 -4.01644 2.49149 13.40225 -63.65096 108.12542 -107.15482 34.72215 0.69521 42.96082 5.03633 -9.89754 -24.08109 -7.00875 -2.87551 -2.13472 47.34123 18.31171 -2.44277 -61.57475 -11.72687 -0.04254 0.71447
-0.68896 -0.00458 0.04225 299.9046 -27.51294 -2.66825 35.10758 7.96439 -5.2756 -1.8137 4.10371 -0.83069 43.27942 10.32572 38.46182 126.9168 81.80944 -2.43306 -4.20846 2.09442 13.18612 -63.69192 108.13976 -107.26387 35.15201 0.55205 42.25239 5.03656 -10.26632 -23.75397 -6.96187 -2.8934 -2.13997 48.42409 18.22128 -1.96516 -62.12337 -11.21812 0.45124 0.98868
-0.68852 -0.00388 0.04706 300.67434 -27.55815 -2.45477 34.98728 7.84147 -4.9789 -1.74652 4.26392 -0.83069 43.25783 10.20125 38.68278 127.03325 81.44758 -3.27452 -4.40245 1.69741 13.01133 -63.66544 108.19053 -107.30558 35.4126 0.45951 41.6236 4.99267 -10.49795 -23.5087 -6.91672 -2.9304 -2.1572 49.2091 18.00308 -1.66531 -61.6497 -10.76535 0.86679 1.21565
-0.68748 -0.00368 0.05123 301.54745 -27.61418 -2.1286 34.88345 7.7139 -4.67819 -1.70983 4.14118 -0.83069 43.25128 10.33122 38.86419 126.99775 81.38441 -3.48858 -4.60205 1.32693 12.95973 -63.4669 108.37032 -107.15392 35.26207 0.53093 41.18555 4.83509 -10.35709 -23.49058 -6.87016 -3.0233 -2.20928 49.24077 17.47493 -1.89456 -58.58923 -10.51056 1.04585 1.30003
-0.68619 -0.00365 0.05513 302.45315 -27.6812 -1.7618 34.78829 7.58241 -4.36761 -1.68996 3.9152 -0.83069 43.23854 10.54836 39.03272 126.90693 81.42082 -3.48108 -4.80321 0.96481 12.95078 -63.20557 108.58671 -106.93213 34.94743 0.65457 40.82963 4.63444 -10.08403 -23.55727 -6.82483 -3.13545 -2.27336 48.98227 16.82759 -2.2931 -54.5215 -10.32238 1.13413 1.33086
-0.685 -0.00355 0.05913 303.3442 -27.74955 -1.41806 34.69151 7.45503 -4.06319 -1.6642 3.73727 -0.83069 43.22399 10.72048 39.20231 126.84047 81.40675 -3.56575 -5.00327 0.60839 12.92179 -62.97902 108.77702 -106.7389 34.70423 0.74965 40.4474 4.4531 -9.88354 -23.58954 -6.77956 -3.23769 -2.33121 48.85626 16.24244 -2.60232 -50.88894 -10.10858 1.26676 1.3883
-0.68387 -0.00344 0.06325 304.23192 -27.79164 -1.05196 34.58499 7.31515 -3.74519 -1.6331 3.55392 -0.83069 43.2265 10.91471 39.39551 126.778 81.41123 -3.69567 -5.20572 0.20555 12.89414 -62.72194 109.00485 -106.5599 34.466 0.86255 40.01968 4.27117 -9.62755 -23.60315 -6.73227 -3.34458 -2.39221 48.7168 15.61622 -2.98765 -47.31886 -9.86329 1.41676 1.45166
-0.68256 -0.00339 0.06705 305.13483 -27.89123 -0.72446 34.50095 7.20135 -3.45576 -1.61672 3.35772 -0.83069 43.19125 11.0838 39.53536 126.69376 81.40218 -3.67534 -5.4027 -0.0959 12.87458 -62.51575 109.16442 -106.33582 34.18241 0.9518 39.7064 4.08142 -9.45608 -23.67637 -6.68939 -3.44652 -2.44959 48.54134 15.04943 -3.22379 -43.39566 -9.70765 1.47447 1.47241
-0.68082 -0.00349 0.07007 306.07722 -28.14196 -0.50737 34.47469 7.16117 -3.24628 -1.63196 3.14983 -0.83069 43.07351 11.16297 39.5281 126.56264 81.33011 -3.29166 -5.59079 -0.12321 12.86464 -62.4573 109.123 -105.98794 33.80377 0.962 39.68139 3.87426 -9.55991 -23.89227 -6.65671 -3.52923 -2.49342 48.32887 14.68327 -3.28847 -38.70367 -9.73271 1.60034 1.54118
-0.67891 -0.00366 0.07277 307.0327 -28.4507 -0.33229 34.47098 7.14769 -3.06707 -1.66208 2.93301 -0.83069 42.91446 11.21377 39.46713 126.41089 81.2417 -2.76343 -5.77184 -0.04746 12.86202 -62.45372 109.01269 -105.59979 33.38791 0.94715 39.76952 3.66224 -9.75231 -24.16576 -6.62862 -3.60643 -2.5333 48.09355 14.3809 -3.15457 -33.70606 -9.85247 1.59287 1.54668
